PathFileType	4	(X/Y/Z)	C:\Users\Basilio\Documents\Thesis Gigler\squatting_fais\c3dfiles\073\SJ_pre4\markers_experimental.trc
DataRate	CameraRate	NumFrames	NumMarkers	Units	OrigDataRate	OrigDataStartFrame	OrigNumFrames
200.000000	200.000000	4	61	mm	200.000000	324	1299
Frame#	Time	FHD			LBHD			RBHD			C7			T10			CLAV			LSHO			LUUPA			LMUPA			LDUPA			LLEP			LMEP			LRAD			LUL			LRFIN			RSHO			RUPA1			RMUPA			RDUPA			RLEP			RMEP			RRAD			RUL			RUFIN			LASI			RASI			USACR			LSACR			RSACR			LTHI1			LTHI2			LTHI3			LTHI4			LLFC			LMFC			LTIB1			LTIB2			LTIB3			LTIB4			LLMAL			LMMAL			LHEE			LMT1			LMT2			LMT5			RTHI			RTHI2			RTHI3			RTHI4			RLFC			RMFC			RTIB1			RTIB2			RTIB3			RTIB4			RLMAL			RMMAL			RHEE			RMT1			RMT2			RMT5			
		X1	Y1	Z1	X2	Y2	Z2	X3	Y3	Z3	X4	Y4	Z4	X5	Y5	Z5	X6	Y6	Z6	X7	Y7	Z7	X8	Y8	Z8	X9	Y9	Z9	X10	Y10	Z10	X11	Y11	Z11	X12	Y12	Z12	X13	Y13	Z13	X14	Y14	Z14	X15	Y15	Z15	X16	Y16	Z16	X17	Y17	Z17	X18	Y18	Z18	X19	Y19	Z19	X20	Y20	Z20	X21	Y21	Z21	X22	Y22	Z22	X23	Y23	Z23	X24	Y24	Z24	X25	Y25	Z25	X26	Y26	Z26	X27	Y27	Z27	X28	Y28	Z28	X29	Y29	Z29	X30	Y30	Z30	X31	Y31	Z31	X32	Y32	Z32	X33	Y33	Z33	X34	Y34	Z34	X35	Y35	Z35	X36	Y36	Z36	X37	Y37	Z37	X38	Y38	Z38	X39	Y39	Z39	X40	Y40	Z40	X41	Y41	Z41	X42	Y42	Z42	X43	Y43	Z43	X44	Y44	Z44	X45	Y45	Z45	X46	Y46	Z46	X47	Y47	Z47	X48	Y48	Z48	X49	Y49	Z49	X50	Y50	Z50	X51	Y51	Z51	X52	Y52	Z52	X53	Y53	Z53	X54	Y54	Z54	X55	Y55	Z55	X56	Y56	Z56	X57	Y57	Z57	X58	Y58	Z58	X59	Y59	Z59	X60	Y60	Z60	X61	Y61	Z61	

325	1.62	15.81031322479248	1301.419555664063	-962.3557739257815	-120.4039382934571	1324.325927734375	-985.840759277344	-147.3695373535157	1323.244018554688	-852.668884277344	-202.9225769042969	1267.314819335938	-910.126159667969	-475.8472900390626	1059.405151367188	-908.2821044921877	-165.316879272461	1118.732055664063	-913.6406250000002	-166.7264099121094	1155.763916015625	-1078.400268554688	-251.3001403808594	1131.52734375	-1206.625610351563	-266.3982543945313	1083.775146484375	-1210.99609375	-293.9621276855469	1110.656005859375	-1258.279663085938	-365.0524902343751	1059.990478515625	-1321.718017578125	-437.8824462890626	1098.390014648438	-1300.603271484375	-462.4526977539064	881.316101074219	-1151.046630859375	-421.5998840332032	835.4524536132815	-1193.9375	-446.6419067382814	868.140319824219	-1094.252319335938	-152.8779907226563	1135.92431640625	-748.5239257812501	-245.6188964843751	1114.049194335938	-597.9505004882814	-263.5653381347657	1068.23486328125	-592.8533935546876	-291.8143310546876	1097.4912109375	-548.2253417968751	-354.9511108398438	1046.33203125	-497.6975708007814	-429.2750854492189	1092.4462890625	-533.8475952148439	-505.9672851562501	883.4685058593752	-651.5587768554689	-463.4776611328126	832.3828125000002	-615.3264160156251	-467.4977111816407	867.0088500976565	-710.9266967773439	-433.8787841796876	849.7686767578127	-1035.94677734375	-429.7656555175782	838.513854980469	-796.5349731445315	-567.5875244140626	969.980163574219	-903.0628051757815	-591.2939453125001	950.2285156250002	-931.6150512695315	-594.1981201171876	947.8233032226565	-875.2878417968752	-375.3034973144532	642.6879882812501	-1162.397216796875	-298.7471923828126	604.4320068359376	-1169.168579101563	-263.9602661132813	627.9915161132814	-1141.35107421875	-289.5089111328126	544.7230834960939	-1165.135498046875	-269.0069274902344	494.6625976562501	-1178.025756835938	-250.9564514160157	473.602020263672	-1051.19970703125	-256.9817199707032	293.9020690917969	-1154.6201171875	-331.6896057128907	279.2746887207032	-1200.427978515625	-295.2819824218751	259.3302001953126	-1187.320190429688	-314.7884826660157	181.6070861816407	-1157.632080078125	-412.1113891601564	84.9130096435547	-1186.06005859375	-388.7605285644532	103.8606491088867	-1100.020874023438	-469.1555175781251	50.33027648925783	-1140.900268554688	-240.1389923095704	55.24544906616212	-1130.288818359375	-242.9637145996094	55.54254150390626	-1168.726806640625	-283.3287353515626	35.66291046142579	-1220.489624023438	-446.934051513672	676.6187133789064	-677.5499877929689	-385.0159912109376	655.8134765625001	-665.6945190429689	-358.9713134765626	675.7596435546876	-671.3112182617189	-357.1835632324219	575.4550781250001	-669.4766845703126	-270.9307556152344	469.5216064453126	-659.9661865234376	-250.2241668701172	447.7136840820314	-782.6469726562502	-265.5101318359376	301.9880371093751	-732.8366699218751	-322.7391357421876	240.568588256836	-663.7345581054689	-298.0468444824219	227.4733581542969	-702.8012084960939	-328.1646728515626	189.0177307128907	-733.8840332031251	-420.1402893066407	84.31990814208986	-674.3408203125001	-401.8876037597657	99.89416503906253	-763.1762695312501	-488.4847106933595	43.25259399414063	-731.0840454101564	-261.4550476074219	56.74848937988283	-707.8842773437501	-266.8894348144532	58.38961029052736	-666.8971557617189	-312.9442749023438	34.02974319458009	-623.6101684570314	
326	1.625	16.76418495178223	1297.127197265625	-962.7905273437502	-119.3753433227539	1319.85791015625	-986.190124511719	-146.1363525390625	1318.681030273438	-852.9797363281252	-201.5695953369141	1263.031372070313	-910.408142089844	-475.4222106933595	1056.419189453125	-908.6962890625002	-164.4779052734375	1114.26953125	-914.0383300781252	-165.663803100586	1151.421142578125	-1078.661987304688	-250.277084350586	1127.636596679688	-1206.920654296875	-265.3163757324219	1079.919677734375	-1211.515258789063	-292.9276123046876	1106.81103515625	-1258.392333984375	-363.9037170410157	1056.669677734375	-1322.5322265625	-436.6726379394532	1095.26025390625	-1301.3974609375	-462.6290283203126	878.429626464844	-1151.8564453125	-421.4475402832032	832.366394042969	-1194.409057617188	-446.1560058593751	865.342712402344	-1094.9208984375	-151.9711303710938	1131.551025390625	-748.9539794921876	-244.7689971923829	1110.19384765625	-598.3045654296876	-262.8233642578126	1064.460815429688	-593.0751953125001	-290.9894104003907	1093.857299804688	-548.4396972656251	-354.2487792968751	1042.904907226563	-497.8733520507814	-428.4468994140626	1089.314819335938	-534.0401000976564	-505.9570617675782	880.6617431640627	-651.7199707031251	-463.557342529297	829.4939575195315	-615.7972412109376	-467.6007690429689	864.3440551757815	-711.1945190429689	-434.581512451172	846.6092529296877	-1036.2958984375	-430.0264892578126	835.7847900390627	-796.8326416015627	-567.4905395507814	967.3872070312502	-903.4660644531252	-591.2621459960939	947.6014404296877	-931.8613891601565	-594.1553955078126	945.3044433593752	-875.533874511719	-374.6936340332032	641.1676635742189	-1162.525756835938	-298.0071411132813	603.4495849609376	-1169.34912109375	-263.2701416015626	627.1066284179689	-1141.407470703125	-288.2273559570313	543.7540893554689	-1165.345092773438	-267.6326904296876	493.9244995117189	-1178.057250976563	-249.4244537353516	472.9691772460939	-1051.340942382813	-255.9007568359376	292.9153747558594	-1154.288330078125	-330.9446105957032	279.0426330566407	-1200.430908203125	-293.9227600097657	259.3304138183594	-1187.398193359375	-314.3890380859376	181.2199859619141	-1157.446655273438	-411.9637756347657	84.94020843505861	-1185.968505859375	-388.6104431152345	103.826889038086	-1099.89111328125	-469.1873779296876	50.36517333984376	-1140.8310546875	-240.1354522705079	55.16873931884767	-1130.274291992188	-242.9598693847657	55.52488708496095	-1168.684448242188	-283.3700561523438	35.65877914428712	-1220.453125	-446.780487060547	674.5744018554689	-677.8417968750001	-384.7500305175782	654.0399169921876	-665.7970581054689	-358.8667907714844	674.1661376953126	-671.5346679687501	-356.3742980957032	573.9291992187501	-669.4628295898439	-269.7518310546876	468.8161010742189	-659.9912109375001	-248.6355590820313	447.1219177246095	-782.5270996093752	-264.5836791992188	301.3720092773438	-732.7793579101564	-322.0780639648438	240.2614898681641	-663.7047119140626	-297.2239379882813	226.9463806152344	-702.7122192382814	-327.7251892089844	188.7450256347657	-733.8609008789064	-420.0273742675782	84.30503082275392	-674.4202270507814	-401.722137451172	99.8164978027344	-763.2289428710939	-488.3969726562501	43.29272460937501	-731.1974487304689	-261.3659057617188	56.65017700195314	-707.8566284179689	-266.7668762207032	58.25917053222658	-666.9008789062501	-312.8749389648438	34.01036453247071	-623.6244506835939	
327	1.63	18.10964012145996	1292.822631835938	-962.8533935546877	-118.176628112793	1315.354736328125	-986.517517089844	-145.268798828125	1314.411376953125	-853.261657714844	-200.2476806640626	1258.886474609375	-910.792175292969	-474.9559326171876	1053.331176757813	-909.007995605469	-163.7314605712891	1109.964111328125	-914.387634277344	-164.6488952636719	1146.923095703125	-1078.976196289063	-249.048080444336	1123.837158203125	-1207.4208984375	-264.5282897949219	1076.048461914063	-1212.124755859375	-291.8324279785157	1102.980102539063	-1258.929321289063	-362.7668762207032	1053.33642578125	-1323.138549804688	-435.5404357910157	1092.155151367188	-1302.15087890625	-462.3970031738282	875.5837402343752	-1152.617309570313	-421.4450683593751	829.3428344726565	-1194.942749023438	-446.4990539550782	862.6230468750002	-1095.648803710938	-151.179916381836	1127.000732421875	-749.4765014648439	-243.8367919921876	1106.34228515625	-598.5438232421876	-262.1810913085938	1060.583374023438	-593.4067993164064	-290.0993041992188	1090.16162109375	-548.6994018554689	-353.5698852539063	1039.535034179688	-498.0531311035157	-427.5950012207032	1086.158325195313	-534.2131958007814	-505.9236145019532	877.9301757812502	-651.9321289062501	-463.5399475097657	826.6248168945315	-616.0819702148439	-467.709686279297	861.7564086914065	-711.5588378906251	-435.2320861816407	843.7539062500002	-1036.830322265625	-430.2982177734376	832.9500732421877	-797.2464599609377	-567.4317016601564	964.7048950195315	-903.7578125000002	-591.3884887695314	945.0146484375002	-932.2191162109377	-594.0535888671876	942.7508544921877	-875.7574462890627	-374.0708923339844	639.6788330078126	-1162.80517578125	-297.1794128417969	602.4918212890626	-1169.486328125	-262.6929931640626	626.2765502929689	-1141.357666015625	-287.0074157714844	542.7963256835939	-1165.490478515625	-266.0858154296876	493.1261291503907	-1178.141235351563	-247.9027557373047	472.4525756835939	-1051.447875976563	-254.9812774658204	292.3147277832032	-1154.272705078125	-329.9465942382813	278.7046813964844	-1200.39111328125	-293.2702026367188	258.7793884277344	-1187.127563476563	-313.9212951660157	180.8284912109375	-1157.35595703125	-411.8194885253907	84.95752716064455	-1185.889526367188	-388.5514526367189	103.7806243896485	-1099.802856445313	-469.1694335937501	50.38659286499025	-1140.731079101563	-240.1236267089844	55.16450119018556	-1130.260131835938	-242.9255676269532	55.53639221191408	-1168.721801757813	-283.3417968750001	35.71259689331055	-1220.42333984375	-446.6294250488282	672.5297241210939	-678.1101684570314	-384.5050354003907	652.4768676757814	-666.0032958984376	-358.7933349609376	672.6822509765626	-671.7382202148439	-355.6884765625001	572.5099487304689	-669.5604248046876	-268.4741821289063	468.0101318359376	-659.9964599609376	-247.103500366211	446.4240112304689	-782.3345947265627	-263.7237243652344	300.7855224609376	-732.6754150390626	-321.5104980468751	239.9402008056641	-663.7110595703126	-296.7057495117188	226.7089080810547	-702.6262817382814	-327.0161437988282	188.3335266113282	-733.8098754882814	-419.9140625000001	84.28802490234376	-674.5454101562501	-401.5966796875001	99.77886199951175	-763.2569580078126	-488.3492126464845	43.36163711547852	-731.2686767578126	-261.2337951660157	56.55852508544923	-707.8789062500001	-266.7049255371094	58.14840698242189	-666.9040527343751	-312.8334960937501	34.0185775756836	-623.6013793945314	
328	1.635	19.21742820739746	1288.544067382813	-963.3571777343752	-117.1265411376953	1310.940795898438	-986.7998046875002	-144.1610717773438	1309.845336914063	-853.660095214844	-198.9746704101563	1254.790405273438	-911.1265258789065	-474.4572753906251	1050.317626953125	-909.384704589844	-162.9107208251953	1105.641723632813	-914.7637939453127	-163.4447784423828	1142.515258789063	-1079.195068359375	-247.8453674316407	1119.90576171875	-1207.798828125	-263.4857788085938	1072.210327148438	-1212.66015625	-290.6860961914063	1099.234619140625	-1259.357543945313	-361.5768737792969	1050.003540039063	-1323.656860351563	-434.3702087402345	1089.073364257813	-1303.002563476563	-462.3512573242189	872.730407714844	-1153.228759765625	-421.4539489746095	826.299255371094	-1195.515502929688	-446.291229248047	859.7850341796877	-1096.229248046875	-150.34716796875	1122.702392578125	-749.8109130859376	-242.9584045410157	1102.400268554688	-598.8776245117189	-261.4265747070313	1056.779296875	-593.7617797851564	-289.2577514648438	1086.501831054688	-549.0744628906251	-352.8874816894532	1036.122192382813	-498.2094726562501	-426.7610168457032	1083.054565429688	-534.3604736328126	-505.9546508789064	875.2044677734377	-652.1558227539064	-463.536346435547	823.7664794921877	-616.4533691406251	-467.8605346679689	859.2028808593752	-711.8673706054689	-435.6155090332032	840.6167602539065	-1037.365600585938	-430.4880371093751	830.1524658203127	-797.4650878906252	-567.4111328125001	962.0098876953127	-903.985046386719	-591.6279296875001	942.5075683593752	-932.4174804687502	-594.1234741210939	940.1406250000002	-876.066101074219	-373.5172424316407	638.0911254882814	-1162.906860351563	-296.1362304687501	601.5186157226564	-1169.642456054688	-262.1369323730469	625.4078369140626	-1141.381469726563	-285.7731018066407	541.8167114257814	-1165.603149414063	-264.5410766601563	492.2807922363282	-1178.14306640625	-246.3636932373047	471.902557373047	-1051.464477539063	-254.1312713623047	292.0006408691407	-1154.4541015625	-329.0562744140626	278.2881774902344	-1200.342041015625	-292.6578979492188	258.1275634765626	-1186.875122070313	-313.3717651367188	180.391342163086	-1157.152099609375	-411.688446044922	84.98965454101564	-1185.797119140625	-388.4774169921876	103.7394332885742	-1099.689819335938	-469.1320190429689	50.3866653442383	-1140.668823242188	-240.1094970703126	55.16590881347658	-1130.253784179688	-242.8063964843751	55.55889129638673	-1168.647705078125	-283.3495788574219	35.7467155456543	-1220.412109375	-446.4696655273439	670.5715332031251	-678.2446899414064	-384.3053588867189	650.7652587890626	-666.2425537109376	-358.6890563964844	671.2191772460939	-671.8619995117189	-354.9689331054688	571.0143432617189	-669.5573730468751	-267.2313842773438	467.2794189453126	-659.8880004882814	-245.6459045410157	445.7308044433595	-782.2998046875002	-262.7443237304688	300.1034545898438	-732.5341796875001	-320.8567199707032	239.5858306884766	-663.6469726562501	-296.0340576171876	226.3078002929688	-702.5178222656251	-326.6038818359376	188.0176391601563	-733.8049926757814	-419.815399169922	84.29265594482423	-674.6440429687501	-401.4486083984376	99.73972320556643	-763.3546752929689	-488.2656860351564	43.41427993774415	-731.3961181640626	-261.1632995605469	56.48540496826173	-707.8532104492189	-266.6529846191407	58.0549774169922	-666.9013061523439	-312.8082580566407	34.01421737670899	-623.5855712890626	
